{
  "accessors": [
    {
      "bufferView": 2,
      "componentType": 5126,
      "count": 942,
      "max": [
        3.5632598400115967,
        11.732389450073242,
        1.9031909704208374
      ],
      "min": [
        -3.5632598400115967,
        0.04216796159744263,
        -1.1713720560073853
      ],
      "type": "VEC3"
    },
    {
      "bufferView": 2,
      "byteOffset": 11304,
      "componentType": 5126,
      "count": 942,
      "max": [
        0.9983302354812622,
        1.0,
        0.9999819397926331
      ],
      "min": [
        -0.9983302354812622,
        -1.0,
        -0.9999819397926331
      ],
      "type": "VEC3"
    },
    {
      "bufferView": 1,
      "componentType": 5126,
      "count": 942,
      "max": [
        0.9982720017433167,
        0.9907240271568298
      ],
      "min": [
        0.0024429550394415855,
        0.0018650289857760072
      ],
      "type": "VEC2"
    },
    {
      "bufferView": 0,
      "componentType": 5125,
      "count": 3432,
      "type": "SCALAR"
    },
    {
      "bufferView": 2,
      "byteOffset": 22608,
      "componentType": 5126,
      "count": 281,
      "max": [
        1.901615023612976,
        14.430439949035645,
        2.0190510749816895
      ],
      "min": [
        -1.9395439624786377,
        9.095409393310547,
        -2.1400439739227295
      ],
      "type": "VEC3"
    },
    {
      "bufferView": 2,
      "byteOffset": 25980,
      "componentType": 5126,
      "count": 281,
      "max": [
        0.9986771941184998,
        0.9966379404067993,
        0.999756395816803
      ],
      "min": [
        -0.9986771941184998,
        -0.9966379404067993,
        -0.999756395816803
      ],
      "type": "VEC3"
    },
    {
      "bufferView": 1,
      "byteOffset": 7536,
      "componentType": 5126,
      "count": 281,
      "max": [
        0.9969189763069153,
        0.9986940026283264
      ],
      "min": [
        0.5029320120811462,
        0.5030239820480347
      ],
      "type": "VEC2"
    },
    {
      "bufferView": 0,
      "byteOffset": 13728,
      "componentType": 5125,
      "count": 1131,
      "type": "SCALAR"
    },
    {
      "bufferView": 2,
      "byteOffset": 29352,
      "componentType": 5126,
      "count": 201,
      "max": [
        1.5743939876556396,
        2.531635046005249,
        1.9634050130844116
      ],
      "min": [
        -1.5743939876556396,
        0.0,
        -0.9104679822921753
      ],
      "type": "VEC3"
    },
    {
      "bufferView": 2,
      "byteOffset": 31764,
      "componentType": 5126,
      "count": 201,
      "max": [
        0.9843330979347229,
        0.9999868273735046,
        0.9988925457000732
      ],
      "min": [
        -0.9843330979347229,
        -0.9999868273735046,
        -0.9988925457000732
      ],
      "type": "VEC3"
    },
    {
      "bufferView": 1,
      "byteOffset": 9784,
      "componentType": 5126,
      "count": 201,
      "max": [
        0.692333996295929,
        0.4281409978866577
      ],
      "min": [
        0.45121997594833374,
        0.0053460001945495605
      ],
      "type": "VEC2"
    },
    {
      "bufferView": 0,
      "byteOffset": 18252,
      "componentType": 5125,
      "count": 657,
      "type": "SCALAR"
    },
    {
      "bufferView": 2,
      "byteOffset": 34176,
      "componentType": 5126,
      "count": 141,
      "max": [
        3.266664981842041,
        6.965944766998291,
        0.16960099339485168
      ],
      "min": [
        2.3612380027770996,
        6.083828926086426,
        -0.6285660266876221
      ],
      "type": "VEC3"
    },
    {
      "bufferView": 2,
      "byteOffset": 35868,
      "componentType": 5126,
      "count": 141,
      "max": [
        0.9755015969276428,
        0.9975578784942627,
        0.9922665953636169
      ],
      "min": [
        -0.9755014777183533,
        -0.9975578784942627,
        -0.9922665953636169
      ],
      "type": "VEC3"
    },
    {
      "bufferView": 1,
      "byteOffset": 11392,
      "componentType": 5126,
      "count": 141,
      "max": [
        0.9974599480628967,
        0.48766499757766724
      ],
      "min": [
        0.0012629620032384992,
        0.0017750259721651673
      ],
      "type": "VEC2"
    },
    {
      "bufferView": 0,
      "byteOffset": 20880,
      "componentType": 5125,
      "count": 333,
      "type": "SCALAR"
    }
  ],
  "asset": {
    "extras": {
      "author": "naviogutierrezdavid (https://sketchfab.com/naviogutierrezdavid)",
      "license": "CC-BY-4.0 (http://creativecommons.org/licenses/by/4.0/)",
      "source": "https://sketchfab.com/3d-models/nathan-db609f300df44f8fb192c6f7aabfeb71",
      "title": "Nathan"
    },
    "generator": "Sketchfab-16.12.0",
    "version": "2.0"
  },
  "bufferViews": [
    {
      "buffer": 0,
      "byteLength": 22212,
      "name": "floatBufferViews",
      "target": 34963
    },
    {
      "buffer": 0,
      "byteLength": 12520,
      "byteOffset": 22212,
      "byteStride": 8,
      "name": "floatBufferViews",
      "target": 34962
    },
    {
      "buffer": 0,
      "byteLength": 37560,
      "byteOffset": 34732,
      "byteStride": 12,
      "name": "floatBufferViews",
      "target": 34962
    }
  ],
  "buffers": [
    {
      "byteLength": 72292,
      "uri": "scene.bin"
    }
  ],
  "extensionsUsed": [
    "KHR_materials_unlit"
  ],
  "images": [
    {
      "uri": "textures/DefaultLib.c001000_01_01_baseColor.png"
    }
  ],
  "materials": [
    {
      "doubleSided": true,
      "extensions": {
        "KHR_materials_unlit": {}
      },
      "name": "DefaultLib.c001000_01_01",
      "pbrMetallicRoughness": {
        "baseColorTexture": {
          "index": 0
        },
        "metallicFactor": 0.0
      }
    },
    {
      "doubleSided": true,
      "extensions": {
        "KHR_materials_unlit": {}
      },
      "name": "DefaultLib.c001000_01_02",
      "pbrMetallicRoughness": {
        "baseColorTexture": {
          "index": 0
        },
        "metallicFactor": 0.0
      }
    }
  ],
  "meshes": [
    {
      "name": "c001000_output.skin1_DefaultLib.c001000_01_01_0",
      "primitives": [
        {
          "attributes": {
            "NORMAL": 1,
            "POSITION": 0,
            "TEXCOORD_0": 2
          },
          "indices": 3,
          "material": 0,
          "mode": 4
        }
      ]
    },
    {
      "name": "c001000_output.skin2__a_DefaultLib.c001000_01_02_0",
      "primitives": [
        {
          "attributes": {
            "NORMAL": 5,
            "POSITION": 4,
            "TEXCOORD_0": 6
          },
          "indices": 7,
          "material": 1,
          "mode": 4
        }
      ]
    },
    {
      "name": "c001000_output.skinkutsu_DefaultLib.c001000_01_01_0",
      "primitives": [
        {
          "attributes": {
            "NORMAL": 9,
            "POSITION": 8,
            "TEXCOORD_0": 10
          },
          "indices": 11,
          "material": 0,
          "mode": 4
        }
      ]
    },
    {
      "name": "c001000_output.skinwatch_DefaultLib.c001000_01_01_0",
      "primitives": [
        {
          "attributes": {
            "NORMAL": 13,
            "POSITION": 12,
            "TEXCOORD_0": 14
          },
          "indices": 15,
          "material": 0,
          "mode": 4
        }
      ]
    }
  ],
  "nodes": [
    {
      "children": [
        1
      ],
      "matrix": [
        1.0,
        0.0,
        0.0,
        0.0,
        0.0,
        2.220446049250313e-16,
        -1.0,
        0.0,
        0.0,
        1.0,
        2.220446049250313e-16,
        0.0,
        0.0,
        0.0,
        0.0,
        1.0
      ],
      "name": "Sketchfab_model"
    },
    {
      "children": [
        2
      ],
      "matrix": [
        0.009999999776482582,
        0.0,
        0.0,
        0.0,
        0.0,
        0.0,
        0.009999999776482582,
        0.0,
        0.0,
        -0.009999999776482582,
        0.0,
        0.0,
        0.0,
        0.0,
        0.0,
        1.0
      ],
      "name": "a64cde56fb554788b4f8943ef5d01241.fbx"
    },
    {
      "children": [
        3,
        6,
        8,
        10,
        12,
        14
      ],
      "name": "RootNode"
    },
    {
      "children": [
        4
      ],
      "matrix": [
        -29.086477364379697,
        -5.518905590722295,
        -95.51711910171437,
        0.0,
        56.63932069164076,
        79.46722539115298,
        -21.839126361216156,
        0.0,
        77.11007920637729,
        -60.452475336912016,
        -19.988344364310564,
        0.0,
        0.0,
        0.0,
        0.0,
        1.0
      ],
      "name": "Light"
    },
    {
      "children": [
        5
      ],
      "matrix": [
        1.0,
        0.0,
        0.0,
        0.0,
        0.0,
        2.220446049250313e-16,
        1.0,
        0.0,
        0.0,
        -1.0,
        2.220446049250313e-16,
        0.0,
        0.0,
        0.0,
        0.0,
        1.0
      ],
      "name": "Object_4"
    },
    {
      "name": "Object_5"
    },
    {
      "children": [
        7
      ],
      "matrix": [
        -65.1558127516791,
        -44.52713915455176,
        -61.417049289096546,
        0.0,
        -32.401349332924404,
        89.53957282709818,
        -30.5420854760369,
        0.0,
        68.59207001076241,
        8.666908837178815e-06,
        -72.76761921184274,
        0.0,
        735.88916015625,
        495.8309326171875,
        692.5791015625,
        1.0
      ],
      "name": "Camera"
    },
    {
      "name": "Object_7"
    },
    {
      "children": [
        9
      ],
      "matrix": [
        100.0,
        0.0,
        0.0,
        0.0,
        0.0,
        99.61946164651295,
        -8.715580036927475,
        0.0,
        0.0,
        8.715580036927475,
        99.61946164651295,
        0.0,
        0.0,
        0.0,
        0.0,
        1.0
      ],
      "name": "c001000_output.skin1"
    },
    {
      "mesh": 0,
      "name": "c001000_output.skin1_DefaultLib.c001000_01_01_0"
    },
    {
      "children": [
        11
      ],
      "matrix": [
        100.0,
        0.0,
        0.0,
        0.0,
        0.0,
        99.61946164651295,
        -8.715580036927475,
        0.0,
        0.0,
        8.715580036927475,
        99.61946164651295,
        0.0,
        0.0,
        0.0,
        0.0,
        1.0
      ],
      "name": "c001000_output.skin2__a"
    },
    {
      "mesh": 1,
      "name": "c001000_output.skin2__a_DefaultLib.c001000_01_02_0"
    },
    {
      "children": [
        13
      ],
      "matrix": [
        100.0,
        0.0,
        0.0,
        0.0,
        0.0,
        99.61946164651295,
        -8.715580036927475,
        0.0,
        0.0,
        8.715580036927475,
        99.61946164651295,
        0.0,
        0.0,
        0.0,
        0.0,
        1.0
      ],
      "name": "c001000_output.skinkutsu"
    },
    {
      "mesh": 2,
      "name": "c001000_output.skinkutsu_DefaultLib.c001000_01_01_0"
    },
    {
      "children": [
        15
      ],
      "matrix": [
        100.0,
        0.0,
        0.0,
        0.0,
        0.0,
        99.61946814296016,
        -8.71559331966248,
        0.0,
        0.0,
        8.71559331966248,
        99.61946814296016,
        0.0,
        0.0,
        0.0,
        0.0,
        1.0
      ],
      "name": "c001000_output.skinwatch"
    },
    {
      "mesh": 3,
      "name": "c001000_output.skinwatch_DefaultLib.c001000_01_01_0"
    }
  ],
  "samplers": [
    {
      "magFilter": 9729,
      "minFilter": 9987,
      "wrapS": 10497,
      "wrapT": 10497
    }
  ],
  "scene": 0,
  "scenes": [
    {
      "name": "Sketchfab_Scene",
      "nodes": [
        0
      ]
    }
  ],
  "textures": [
    {
      "sampler": 0,
      "source": 0
    }
  ]
}
